<svg xmlns="http://www.w3.org/2000/svg" width="166" height="44" viewBox="0 0 166 44" fill="none"><path d="M42.0851 32.1579V10.7543L23.563 21.5087V42.9124L28.0231 40.3165V31.0805L30.9348 29.3866V43.9999L34.6482 41.8199L34.6733 27.2067L37.5999 25.5128V34.7488L42.0851 32.1579ZM30.9348 28.0636L28.0231 29.7575V26.1894L30.9348 24.4955V28.0636ZM34.6783 25.8837L34.6883 22.3206L37.5999 20.6267V24.1898L34.6783 25.8837Z" fill="url(#paint0_linear_173_372)"></path><path d="M23.4589 0L4.89172 10.7544L23.5642 21.5089L42.0863 10.7544L37.5911 8.15854L29.6029 12.7991L26.6712 11.1052L40.0667 3.37768L36.2881 1.19772L22.8977 8.92529L19.966 7.23144L27.9541 2.59089L23.4589 0ZM25.5286 11.7718L28.4603 13.4656L25.3783 15.2547L22.4466 13.5608L25.5286 11.7718ZM21.75 9.5918L18.668 11.3809L15.7364 9.68702L18.8184 7.89795L21.75 9.5918Z" fill="url(#paint1_linear_173_372)"></path><path d="M0 16.362V20.7019L12.9544 28.2641L12.9444 31.6317L4.89112 26.9962V32.1579L23.5636 42.9124V21.5087L4.89112 10.7543V15.921L12.9745 20.5616L12.9645 23.9292L0 16.362ZM14.1271 21.2231L17.2292 23.0172L17.2191 26.3848L14.1271 24.5957V21.2231ZM14.1271 28.9306L17.2091 30.7247L17.1991 34.0923L14.1271 32.3033V28.9306Z" fill="url(#paint2_linear_173_372)"></path><path d="M148.641 33.0001L154.646 24.8477L149.155 17.3608H153.784L157.035 21.747L160.272 17.3608H164.885L159.35 24.8477L165.369 33.0001H160.741L157.005 27.9029L153.269 33.0001H148.641Z" fill="black"></path><path d="M141.269 33.3023C139.737 33.3023 138.401 32.9745 137.261 32.3191C136.132 31.6637 135.255 30.736 134.629 29.5361C134.014 28.3362 133.707 26.9145 133.707 25.2709C133.707 23.6273 134.014 22.1904 134.629 20.9602C135.255 19.7301 136.132 18.7722 137.261 18.0865C138.401 17.4008 139.742 17.058 141.284 17.058C142.827 17.058 144.163 17.3958 145.292 18.0714C146.422 18.7369 147.294 19.6847 147.909 20.9149C148.524 22.145 148.832 23.597 148.832 25.2709C148.832 26.8439 148.529 28.2354 147.924 29.4454C147.329 30.6453 146.467 31.5881 145.338 32.2738C144.219 32.9594 142.862 33.3023 141.269 33.3023ZM141.284 30.0201C142.061 30.0201 142.686 29.7933 143.16 29.3395C143.634 28.8858 143.977 28.2908 144.188 27.5548C144.4 26.8086 144.506 25.9969 144.506 25.1196C144.506 24.2928 144.41 23.5113 144.219 22.7752C144.027 22.0392 143.694 21.4443 143.22 20.9905C142.746 20.5367 142.101 20.3099 141.284 20.3099C140.508 20.3099 139.878 20.5267 139.394 20.9602C138.92 21.3838 138.572 21.9635 138.35 22.6996C138.128 23.4256 138.017 24.2323 138.017 25.1196C138.017 25.9364 138.118 26.7229 138.32 27.4791C138.522 28.2253 138.859 28.8353 139.333 29.3093C139.807 29.7832 140.458 30.0201 141.284 30.0201Z" fill="black"></path><path d="M117.122 32.9999V17.3606H121.463V19.5689C121.705 19.1857 122.018 18.8177 122.401 18.4648C122.794 18.1018 123.288 17.8043 123.883 17.5724C124.478 17.3405 125.184 17.2245 126.001 17.2245C126.958 17.2245 127.851 17.411 128.678 17.7841C129.515 18.1572 130.19 18.7471 130.704 19.5538C131.219 20.3503 131.476 21.394 131.476 22.6846V32.9999H127.059V23.2291C127.059 22.3821 126.807 21.7469 126.303 21.3234C125.799 20.8999 125.184 20.6881 124.458 20.6881C123.974 20.6881 123.505 20.7738 123.051 20.9453C122.607 21.1167 122.244 21.3738 121.962 21.7166C121.68 22.0595 121.539 22.483 121.539 22.9871V32.9999H117.122Z" fill="black"></path><path d="M99.795 32.9998V10.5241H104.181V19.6142C104.433 19.2512 104.751 18.8932 105.134 18.5403C105.517 18.1773 105.996 17.8748 106.571 17.6328C107.146 17.3908 107.847 17.2698 108.673 17.2698C109.672 17.2698 110.579 17.4664 111.396 17.8597C112.223 18.2429 112.883 18.8025 113.377 19.5386C113.881 20.2747 114.133 21.1721 114.133 22.2308V32.9998H109.702V22.8812C109.702 22.1754 109.445 21.6359 108.93 21.2628C108.426 20.8797 107.811 20.6881 107.085 20.6881C106.611 20.6881 106.153 20.7738 105.709 20.9452C105.265 21.1166 104.902 21.3788 104.62 21.7317C104.348 22.0745 104.211 22.5031 104.211 23.0173V32.9998H99.795Z" fill="black"></path><path d="M90.7524 33.3023C89.3004 33.3023 88.0047 32.9796 86.8653 32.3343C85.7258 31.6889 84.8284 30.7663 84.173 29.5664C83.5277 28.3564 83.205 26.9145 83.205 25.2406C83.205 23.6273 83.5176 22.2055 84.1428 20.9754C84.7679 19.7452 85.6452 18.7873 86.7745 18.1016C87.9139 17.4059 89.2399 17.058 90.7524 17.058C92.0632 17.058 93.1925 17.3252 94.1404 17.8596C95.0983 18.394 95.8495 19.115 96.394 20.0225C96.9486 20.93 97.2662 21.9434 97.3469 23.0626H93.6715C93.6009 22.6492 93.4547 22.2408 93.2329 21.8375C93.011 21.4241 92.6985 21.0863 92.2951 20.8241C91.8918 20.5519 91.3876 20.4157 90.7826 20.4157C89.7541 20.4157 88.9172 20.814 88.2719 21.6106C87.6366 22.3971 87.319 23.597 87.319 25.2104C87.319 26.733 87.6316 27.943 88.2568 28.8404C88.8819 29.7277 89.7541 30.1714 90.8734 30.1714C91.4683 30.1714 91.9624 30.0252 92.3556 29.7328C92.759 29.4403 93.0715 29.0925 93.2934 28.6891C93.5152 28.2757 93.6564 27.8925 93.7169 27.5396H97.3015C97.2309 28.6185 96.9183 29.5966 96.3638 30.4739C95.8092 31.341 95.0529 32.0318 94.095 32.546C93.1472 33.0502 92.033 33.3023 90.7524 33.3023Z" fill="black"></path><path d="M74.3058 33.3023C72.7529 33.3023 71.3866 32.9796 70.2069 32.3343C69.0372 31.6788 68.1247 30.7562 67.4693 29.5664C66.8138 28.3765 66.4861 26.975 66.4861 25.3616C66.4861 23.7987 66.7836 22.3921 67.3785 21.1417C67.9835 19.8813 68.8507 18.8881 69.98 18.1621C71.1093 17.426 72.4756 17.058 74.0789 17.058C75.6721 17.058 77.0081 17.3958 78.087 18.0714C79.1659 18.7369 79.9827 19.6696 80.5373 20.8695C81.0918 22.0593 81.3691 23.4357 81.3691 24.9986V26.1935H70.8573C70.8573 26.9901 70.9883 27.6858 71.2505 28.2808C71.5127 28.8656 71.8908 29.3193 72.3849 29.642C72.889 29.9546 73.494 30.1109 74.1999 30.1109C74.9561 30.1109 75.6166 29.9495 76.1813 29.6269C76.7459 29.3042 77.1442 28.7748 77.3761 28.0388H81.354C81.1725 29.1479 80.7288 30.0958 80.023 30.8823C79.3172 31.6688 78.4601 32.2687 77.4518 32.6821C76.4434 33.0955 75.3948 33.3023 74.3058 33.3023ZM70.8573 23.5618H77.24C77.24 22.9366 77.119 22.3618 76.877 21.8375C76.6451 21.3132 76.2922 20.8998 75.8183 20.5972C75.3544 20.2947 74.7696 20.1435 74.0638 20.1435C73.3882 20.1435 72.8084 20.3099 72.3244 20.6426C71.8505 20.9653 71.4824 21.3888 71.2203 21.9131C70.9682 22.4375 70.8472 22.987 70.8573 23.5618Z" fill="black"></path><path d="M56.6844 33.0004V15.0622H50.0747V11.1297H67.5744V15.0622H61.116V33.0004H56.6844Z" fill="black"></path><defs><linearGradient id="paint0_linear_173_372" x1="28.9303" y1="11.364" x2="35.7981" y2="38.6495" gradientUnits="userSpaceOnUse"><stop stop-color="#86ACFF"></stop><stop offset="1" stop-color="#135CFD"></stop></linearGradient><linearGradient id="paint1_linear_173_372" x1="18.743" y1="20.0126" x2="30.0619" y2="-2.0686" gradientUnits="userSpaceOnUse"><stop stop-color="#4881FF"></stop><stop offset="1" stop-color="#135CFD"></stop></linearGradient><linearGradient id="paint2_linear_173_372" x1="18.8722" y1="29.4931" x2="-0.051115" y2="18.6493" gradientUnits="userSpaceOnUse"><stop stop-color="#568AFF"></stop><stop offset="1" stop-color="#76A1FF"></stop></linearGradient></defs></svg>